# WaveFront *.obj file (generated by Autodesk ATF)

mtllib CAD_Checkpoint3.mtl

g Body2

v -2.500000 -1.100000 0.100000
v 2.500000 -1.100000 0.100000
v 2.500000 0.900000 0.100000
v -2.500000 0.900000 0.100000
v 2.500000 -1.100000 0.000000
v -2.500000 -1.100000 0.000000
v -2.500000 0.900000 0.000000
v 2.500000 0.900000 0.000000
vt 1.000000 2.500000 0.000000
vt -1.000000 2.500000 0.000000
vt 1.000000 -2.500000 0.000000
vt -1.000000 -2.500000 0.000000
vt -1.000000 -2.500000 0.000000
vt 1.000000 -2.500000 0.000000
vt -1.000000 2.500000 0.000000
vt 1.000000 2.500000 0.000000
vt -0.050000 -1.000000 0.000000
vt 0.050000 -1.000000 0.000000
vt -0.050000 1.000000 0.000000
vt 0.050000 1.000000 0.000000
vt 0.050000 2.500000 0.000000
vt -0.050000 2.500000 0.000000
vt 0.050000 -2.500000 0.000000
vt -0.050000 -2.500000 0.000000
vt 0.050000 1.000000 0.000000
vt -0.050000 1.000000 0.000000
vt 0.050000 -1.000000 0.000000
vt -0.050000 -1.000000 0.000000
vt -0.050000 -2.500000 0.000000
vt 0.050000 -2.500000 0.000000
vt -0.050000 2.500000 0.000000
vt 0.050000 2.500000 0.000000
vn 0.000000 0.000000 1.000000
vn 0.000000 0.000000 1.000000
vn 0.000000 0.000000 1.000000
vn 0.000000 0.000000 1.000000
vn -0.000000 -0.000000 -1.000000
vn -0.000000 -0.000000 -1.000000
vn -0.000000 -0.000000 -1.000000
vn -0.000000 -0.000000 -1.000000
vn -1.000000 -0.000000 -0.000000
vn -1.000000 -0.000000 -0.000000
vn -1.000000 -0.000000 -0.000000
vn -1.000000 -0.000000 -0.000000
vn -0.000000 1.000000 -0.000000
vn -0.000000 1.000000 -0.000000
vn -0.000000 1.000000 -0.000000
vn -0.000000 1.000000 -0.000000
vn 1.000000 -0.000000 -0.000000
vn 1.000000 -0.000000 -0.000000
vn 1.000000 -0.000000 -0.000000
vn 1.000000 -0.000000 -0.000000
vn -0.000000 -1.000000 -0.000000
vn -0.000000 -1.000000 -0.000000
vn -0.000000 -1.000000 -0.000000
vn -0.000000 -1.000000 -0.000000
usemtl Steel_-_Satin
f 2/1/1 3/2/2 1/3/3
f 1/3/3 3/2/2 4/4/4
f 6/5/5 7/6/6 5/7/7
f 5/7/7 7/6/6 8/8/8
f 4/9/9 7/10/10 1/11/11
f 1/11/11 7/10/10 6/12/12
f 3/13/13 8/14/14 4/15/15
f 4/15/15 8/14/14 7/16/16
f 2/17/17 5/18/18 3/19/19
f 3/19/19 5/18/18 8/20/20
f 1/21/21 6/22/22 2/23/23
f 2/23/23 6/22/22 5/24/24
g Body3

v 2.494580 0.887095 2.010891
v 2.494580 -1.112905 2.010891
v 2.494580 -1.112905 0.010891
v 2.494580 0.887095 0.010891
v 2.394580 -1.112905 2.010891
v 2.394580 0.887095 2.010891
v 2.394580 0.887095 0.010891
v 2.394580 -1.112905 0.010891
vt 1.000000 1.000000 0.000000
vt -1.000000 1.000000 0.000000
vt 1.000000 -1.000000 0.000000
vt -1.000000 -1.000000 0.000000
vt -1.000000 -1.000000 0.000000
vt 1.000000 -1.000000 0.000000
vt -1.000000 1.000000 0.000000
vt 1.000000 1.000000 0.000000
vt -0.050000 -1.000000 0.000000
vt 0.050000 -1.000000 0.000000
vt -0.050000 1.000000 0.000000
vt 0.050000 1.000000 0.000000
vt 0.050000 1.000000 0.000000
vt -0.050000 1.000000 0.000000
vt 0.050000 -1.000000 0.000000
vt -0.050000 -1.000000 0.000000
vt 0.050000 1.000000 0.000000
vt -0.050000 1.000000 0.000000
vt 0.050000 -1.000000 0.000000
vt -0.050000 -1.000000 0.000000
vt -0.050000 -2.000000 0.000000
vt 0.050000 -2.000000 0.000000
vt -0.050000 0.000000 0.000000
vt 0.050000 0.000000 0.000000
vn 1.000000 0.000000 0.000000
vn 1.000000 0.000000 0.000000
vn 1.000000 0.000000 0.000000
vn 1.000000 0.000000 0.000000
vn -1.000000 -0.000000 -0.000000
vn -1.000000 -0.000000 -0.000000
vn -1.000000 -0.000000 -0.000000
vn -1.000000 -0.000000 -0.000000
vn -0.000000 1.000000 -0.000000
vn -0.000000 1.000000 -0.000000
vn -0.000000 1.000000 -0.000000
vn -0.000000 1.000000 -0.000000
vn -0.000000 -0.000000 -1.000000
vn -0.000000 -0.000000 -1.000000
vn -0.000000 -0.000000 -1.000000
vn -0.000000 -0.000000 -1.000000
vn -0.000000 -1.000000 -0.000000
vn -0.000000 -1.000000 -0.000000
vn -0.000000 -1.000000 -0.000000
vn -0.000000 -1.000000 -0.000000
vn -0.000000 -0.000000 1.000000
vn -0.000000 -0.000000 1.000000
vn -0.000000 -0.000000 1.000000
vn -0.000000 -0.000000 1.000000
f 10/25/25 11/26/26 9/27/27
f 9/27/27 11/26/26 12/28/28
f 14/29/29 15/30/30 13/31/31
f 13/31/31 15/30/30 16/32/32
f 12/33/33 15/34/34 9/35/35
f 9/35/35 15/34/34 14/36/36
f 11/37/37 16/38/38 12/39/39
f 12/39/39 16/38/38 15/40/40
f 10/41/41 13/42/42 11/43/43
f 11/43/43 13/42/42 16/44/44
f 9/45/45 14/46/46 10/47/47
f 10/47/47 14/46/46 13/48/48
g Body4

v -2.405420 0.887095 2.010891
v -2.405420 -1.112905 2.010891
v -2.405420 -1.112905 0.010891
v -2.405420 0.887095 0.010891
v -2.505420 -1.112905 2.010891
v -2.505420 0.887095 2.010891
v -2.505420 0.887095 0.010891
v -2.505420 -1.112905 0.010891
vt 1.000000 1.000000 0.000000
vt -1.000000 1.000000 0.000000
vt 1.000000 -1.000000 0.000000
vt -1.000000 -1.000000 0.000000
vt -1.000000 -1.000000 0.000000
vt 1.000000 -1.000000 0.000000
vt -1.000000 1.000000 0.000000
vt 1.000000 1.000000 0.000000
vt -0.050000 -1.000000 0.000000
vt 0.050000 -1.000000 0.000000
vt -0.050000 1.000000 0.000000
vt 0.050000 1.000000 0.000000
vt 0.050000 1.000000 0.000000
vt -0.050000 1.000000 0.000000
vt 0.050000 -1.000000 0.000000
vt -0.050000 -1.000000 0.000000
vt 0.050000 1.000000 0.000000
vt -0.050000 1.000000 0.000000
vt 0.050000 -1.000000 0.000000
vt -0.050000 -1.000000 0.000000
vt -0.050000 -2.000000 0.000000
vt 0.050000 -2.000000 0.000000
vt -0.050000 0.000000 0.000000
vt 0.050000 0.000000 0.000000
vn 1.000000 0.000000 0.000000
vn 1.000000 0.000000 0.000000
vn 1.000000 0.000000 0.000000
vn 1.000000 0.000000 0.000000
vn -1.000000 -0.000000 -0.000000
vn -1.000000 -0.000000 -0.000000
vn -1.000000 -0.000000 -0.000000
vn -1.000000 -0.000000 -0.000000
vn -0.000000 1.000000 -0.000000
vn -0.000000 1.000000 -0.000000
vn -0.000000 1.000000 -0.000000
vn -0.000000 1.000000 -0.000000
vn -0.000000 -0.000000 -1.000000
vn -0.000000 -0.000000 -1.000000
vn -0.000000 -0.000000 -1.000000
vn -0.000000 -0.000000 -1.000000
vn -0.000000 -1.000000 -0.000000
vn -0.000000 -1.000000 -0.000000
vn -0.000000 -1.000000 -0.000000
vn -0.000000 -1.000000 -0.000000
vn -0.000000 -0.000000 1.000000
vn -0.000000 -0.000000 1.000000
vn -0.000000 -0.000000 1.000000
vn -0.000000 -0.000000 1.000000
f 18/49/49 19/50/50 17/51/51
f 17/51/51 19/50/50 20/52/52
f 22/53/53 23/54/54 21/55/55
f 21/55/55 23/54/54 24/56/56
f 20/57/57 23/58/58 17/59/59
f 17/59/59 23/58/58 22/60/60
f 19/61/61 24/62/62 20/63/63
f 20/63/63 24/62/62 23/64/64
f 18/65/65 21/66/66 19/67/67
f 19/67/67 21/66/66 24/68/68
f 17/69/69 22/70/70 18/71/71
f 18/71/71 22/70/70 21/72/72
g Body5

v -2.500000 -1.100000 2.100000
v 2.500000 -1.100000 2.100000
v 2.500000 0.900000 2.100000
v -2.500000 0.900000 2.100000
v 2.500000 -1.100000 2.000000
v -2.500000 -1.100000 2.000000
v -2.500000 0.900000 2.000000
v 2.500000 0.900000 2.000000
vt 1.000000 2.500000 0.000000
vt -1.000000 2.500000 0.000000
vt 1.000000 -2.500000 0.000000
vt -1.000000 -2.500000 0.000000
vt -1.000000 -2.500000 0.000000
vt 1.000000 -2.500000 0.000000
vt -1.000000 2.500000 0.000000
vt 1.000000 2.500000 0.000000
vt -0.050000 -1.000000 0.000000
vt 0.050000 -1.000000 0.000000
vt -0.050000 1.000000 0.000000
vt 0.050000 1.000000 0.000000
vt 0.050000 2.500000 0.000000
vt -0.050000 2.500000 0.000000
vt 0.050000 -2.500000 0.000000
vt -0.050000 -2.500000 0.000000
vt 0.050000 1.000000 0.000000
vt -0.050000 1.000000 0.000000
vt 0.050000 -1.000000 0.000000
vt -0.050000 -1.000000 0.000000
vt -0.050000 -2.500000 0.000000
vt 0.050000 -2.500000 0.000000
vt -0.050000 2.500000 0.000000
vt 0.050000 2.500000 0.000000
vn 0.000000 0.000000 1.000000
vn 0.000000 0.000000 1.000000
vn 0.000000 0.000000 1.000000
vn 0.000000 0.000000 1.000000
vn -0.000000 -0.000000 -1.000000
vn -0.000000 -0.000000 -1.000000
vn -0.000000 -0.000000 -1.000000
vn -0.000000 -0.000000 -1.000000
vn -1.000000 -0.000000 -0.000000
vn -1.000000 -0.000000 -0.000000
vn -1.000000 -0.000000 -0.000000
vn -1.000000 -0.000000 -0.000000
vn -0.000000 1.000000 -0.000000
vn -0.000000 1.000000 -0.000000
vn -0.000000 1.000000 -0.000000
vn -0.000000 1.000000 -0.000000
vn 1.000000 -0.000000 -0.000000
vn 1.000000 -0.000000 -0.000000
vn 1.000000 -0.000000 -0.000000
vn 1.000000 -0.000000 -0.000000
vn -0.000000 -1.000000 -0.000000
vn -0.000000 -1.000000 -0.000000
vn -0.000000 -1.000000 -0.000000
vn -0.000000 -1.000000 -0.000000
f 26/73/73 27/74/74 25/75/75
f 25/75/75 27/74/74 28/76/76
f 30/77/77 31/78/78 29/79/79
f 29/79/79 31/78/78 32/80/80
f 28/81/81 31/82/82 25/83/83
f 25/83/83 31/82/82 30/84/84
f 27/85/85 32/86/86 28/87/87
f 28/87/87 32/86/86 31/88/88
f 26/89/89 29/90/90 27/91/91
f 27/91/91 29/90/90 32/92/92
f 25/93/93 30/94/94 26/95/95
f 26/95/95 30/94/94 29/96/96
g Body6

v -2.508000 -1.100000 1.300000
v 2.492000 -1.100000 1.300000
v 2.492000 0.900000 1.300000
v -2.508000 0.900000 1.300000
v 2.492000 -1.100000 1.200000
v -2.508000 -1.100000 1.200000
v -2.508000 0.900000 1.200000
v 2.492000 0.900000 1.200000
vt 1.000000 2.500000 0.000000
vt -1.000000 2.500000 0.000000
vt 1.000000 -2.500000 0.000000
vt -1.000000 -2.500000 0.000000
vt -1.000000 -2.500000 0.000000
vt 1.000000 -2.500000 0.000000
vt -1.000000 2.500000 0.000000
vt 1.000000 2.500000 0.000000
vt -0.050000 -1.000000 0.000000
vt 0.050000 -1.000000 0.000000
vt -0.050000 1.000000 0.000000
vt 0.050000 1.000000 0.000000
vt 0.050000 2.500000 0.000000
vt -0.050000 2.500000 0.000000
vt 0.050000 -2.500000 0.000000
vt -0.050000 -2.500000 0.000000
vt 0.050000 1.000000 0.000000
vt -0.050000 1.000000 0.000000
vt 0.050000 -1.000000 0.000000
vt -0.050000 -1.000000 0.000000
vt -0.050000 -2.500000 0.000000
vt 0.050000 -2.500000 0.000000
vt -0.050000 2.500000 0.000000
vt 0.050000 2.500000 0.000000
vn 0.000000 0.000000 1.000000
vn 0.000000 0.000000 1.000000
vn 0.000000 0.000000 1.000000
vn 0.000000 0.000000 1.000000
vn -0.000000 -0.000000 -1.000000
vn -0.000000 -0.000000 -1.000000
vn -0.000000 -0.000000 -1.000000
vn -0.000000 -0.000000 -1.000000
vn -1.000000 -0.000000 -0.000000
vn -1.000000 -0.000000 -0.000000
vn -1.000000 -0.000000 -0.000000
vn -1.000000 -0.000000 -0.000000
vn -0.000000 1.000000 -0.000000
vn -0.000000 1.000000 -0.000000
vn -0.000000 1.000000 -0.000000
vn -0.000000 1.000000 -0.000000
vn 1.000000 -0.000000 -0.000000
vn 1.000000 -0.000000 -0.000000
vn 1.000000 -0.000000 -0.000000
vn 1.000000 -0.000000 -0.000000
vn -0.000000 -1.000000 -0.000000
vn -0.000000 -1.000000 -0.000000
vn -0.000000 -1.000000 -0.000000
vn -0.000000 -1.000000 -0.000000
f 34/97/97 35/98/98 33/99/99
f 33/99/99 35/98/98 36/100/100
f 38/101/101 39/102/102 37/103/103
f 37/103/103 39/102/102 40/104/104
f 36/105/105 39/106/106 33/107/107
f 33/107/107 39/106/106 38/108/108
f 35/109/109 40/110/110 36/111/111
f 36/111/111 40/110/110 39/112/112
f 34/113/113 37/114/114 35/115/115
f 35/115/115 37/114/114 40/116/116
f 33/117/117 38/118/118 34/119/119
f 34/119/119 38/118/118 37/120/120
g Body7

v 2.500000 0.900000 0.000000
v -2.500000 0.900000 0.000000
v -2.500000 0.900000 2.100000
v 2.500000 0.900000 2.100000
v -2.500000 0.800000 0.000000
v 2.500000 0.800000 0.000000
v 2.500000 0.800000 2.100000
v -2.500000 0.800000 2.100000
vt 1.050000 2.500000 0.000000
vt -1.050000 2.500000 0.000000
vt 1.050000 -2.500000 0.000000
vt -1.050000 -2.500000 0.000000
vt -1.050000 -2.500000 0.000000
vt 1.050000 -2.500000 0.000000
vt -1.050000 2.500000 0.000000
vt 1.050000 2.500000 0.000000
vt -0.050000 -1.050000 0.000000
vt 0.050000 -1.050000 0.000000
vt -0.050000 1.050000 0.000000
vt 0.050000 1.050000 0.000000
vt 0.050000 2.500000 0.000000
vt -0.050000 2.500000 0.000000
vt 0.050000 -2.500000 0.000000
vt -0.050000 -2.500000 0.000000
vt 0.050000 1.050000 0.000000
vt -0.050000 1.050000 0.000000
vt 0.050000 -1.050000 0.000000
vt -0.050000 -1.050000 0.000000
vt -0.050000 -2.500000 0.000000
vt 0.050000 -2.500000 0.000000
vt -0.050000 2.500000 0.000000
vt 0.050000 2.500000 0.000000
vn 0.000000 1.000000 0.000000
vn 0.000000 1.000000 0.000000
vn 0.000000 1.000000 0.000000
vn 0.000000 1.000000 0.000000
vn -0.000000 -1.000000 -0.000000
vn -0.000000 -1.000000 -0.000000
vn -0.000000 -1.000000 -0.000000
vn -0.000000 -1.000000 -0.000000
vn 1.000000 -0.000000 -0.000000
vn 1.000000 -0.000000 -0.000000
vn 1.000000 -0.000000 -0.000000
vn 1.000000 -0.000000 -0.000000
vn -0.000000 -0.000000 1.000000
vn -0.000000 -0.000000 1.000000
vn -0.000000 -0.000000 1.000000
vn -0.000000 -0.000000 1.000000
vn -1.000000 -0.000000 -0.000000
vn -1.000000 -0.000000 -0.000000
vn -1.000000 -0.000000 -0.000000
vn -1.000000 -0.000000 -0.000000
vn -0.000000 -0.000000 -1.000000
vn -0.000000 -0.000000 -1.000000
vn -0.000000 -0.000000 -1.000000
vn -0.000000 -0.000000 -1.000000
f 42/121/121 43/122/122 41/123/123
f 41/123/123 43/122/122 44/124/124
f 46/125/125 47/126/126 45/127/127
f 45/127/127 47/126/126 48/128/128
f 44/129/129 47/130/130 41/131/131
f 41/131/131 47/130/130 46/132/132
f 43/133/133 48/134/134 44/135/135
f 44/135/135 48/134/134 47/136/136
f 42/137/137 45/138/138 43/139/139
f 43/139/139 45/138/138 48/140/140
f 41/141/141 46/142/142 42/143/143
f 42/143/143 46/142/142 45/144/144
g Body8

v 2.400000 -1.100000 2.100000
v 2.400000 0.900000 2.100000
v 2.500000 0.900000 2.100000
v 2.500000 -1.100000 2.100000
v 2.400000 0.200000 4.500000
v 2.500000 0.200000 4.500000
v 2.400000 0.900000 4.500000
v 2.500000 0.900000 4.500000
vt 0.000000 0.000000 0.000000
vt 2.000000 0.000000 0.000000
vt 0.000000 0.100000 0.000000
vt 2.000000 0.100000 0.000000
vt -0.000000 0.000000 0.000000
vt 2.729469 0.000000 0.000000
vt -0.000000 0.100000 0.000000
vt 2.729469 0.100000 0.000000
vt -0.000000 0.000000 0.000000
vt 0.700000 0.000000 0.000000
vt -0.000000 0.100000 0.000000
vt 0.700000 0.100000 0.000000
vt 0.000000 0.000000 0.000000
vt 2.400000 0.000000 0.000000
vt 0.000000 0.100000 0.000000
vt 2.400000 0.100000 0.000000
vt -1.200000 1.000000 0.000000
vt -1.200000 0.300000 0.000000
vt 1.200000 1.000000 0.000000
vt 1.200000 -1.000000 0.000000
vt -1.000000 1.200000 0.000000
vt -1.000000 -1.200000 0.000000
vt -0.300000 1.200000 0.000000
vt 1.000000 -1.200000 0.000000
vn 0.000000 0.000000 -1.000000
vn 0.000000 0.000000 -1.000000
vn 0.000000 0.000000 -1.000000
vn 0.000000 0.000000 -1.000000
vn 0.000000 -0.879292 0.476283
vn 0.000000 -0.879292 0.476283
vn 0.000000 -0.879292 0.476283
vn 0.000000 -0.879292 0.476283
vn 0.000000 0.000000 1.000000
vn 0.000000 0.000000 1.000000
vn 0.000000 0.000000 1.000000
vn 0.000000 0.000000 1.000000
vn 0.000000 1.000000 0.000000
vn 0.000000 1.000000 0.000000
vn 0.000000 1.000000 0.000000
vn 0.000000 1.000000 0.000000
vn 1.000000 0.000000 0.000000
vn 1.000000 0.000000 0.000000
vn 1.000000 0.000000 0.000000
vn 1.000000 0.000000 0.000000
vn -1.000000 -0.000000 -0.000000
vn -1.000000 -0.000000 -0.000000
vn -1.000000 -0.000000 -0.000000
vn -1.000000 -0.000000 -0.000000
f 49/145/145 50/146/146 52/147/147
f 52/147/147 50/146/146 51/148/148
f 53/149/149 49/150/150 54/151/151
f 54/151/151 49/150/150 52/152/152
f 55/153/153 53/154/154 56/155/155
f 56/155/155 53/154/154 54/156/156
f 50/157/157 55/158/158 51/159/159
f 51/159/159 55/158/158 56/160/160
f 56/161/161 54/162/162 51/163/163
f 51/163/163 54/162/162 52/164/164
f 55/165/165 50/166/166 53/167/167
f 53/167/167 50/166/166 49/168/168
g Body9

v -2.500000 -1.100000 2.100000
v -2.500000 0.900000 2.100000
v -2.400000 0.900000 2.100000
v -2.400000 -1.100000 2.100000
v -2.500000 0.200000 4.500000
v -2.400000 0.200000 4.500000
v -2.500000 0.900000 4.500000
v -2.400000 0.900000 4.500000
vt 0.000000 0.000000 0.000000
vt 2.000000 0.000000 0.000000
vt 0.000000 0.100000 0.000000
vt 2.000000 0.100000 0.000000
vt -0.000000 0.000000 0.000000
vt 2.729469 0.000000 0.000000
vt -0.000000 0.100000 0.000000
vt 2.729469 0.100000 0.000000
vt -0.000000 0.000000 0.000000
vt 0.700000 0.000000 0.000000
vt -0.000000 0.100000 0.000000
vt 0.700000 0.100000 0.000000
vt 0.000000 0.000000 0.000000
vt 2.400000 0.000000 0.000000
vt 0.000000 0.100000 0.000000
vt 2.400000 0.100000 0.000000
vt -1.200000 1.000000 0.000000
vt -1.200000 0.300000 0.000000
vt 1.200000 1.000000 0.000000
vt 1.200000 -1.000000 0.000000
vt -1.000000 1.200000 0.000000
vt -1.000000 -1.200000 0.000000
vt -0.300000 1.200000 0.000000
vt 1.000000 -1.200000 0.000000
vn 0.000000 0.000000 -1.000000
vn 0.000000 0.000000 -1.000000
vn 0.000000 0.000000 -1.000000
vn 0.000000 0.000000 -1.000000
vn 0.000000 -0.879292 0.476283
vn 0.000000 -0.879292 0.476283
vn 0.000000 -0.879292 0.476283
vn 0.000000 -0.879292 0.476283
vn 0.000000 0.000000 1.000000
vn 0.000000 0.000000 1.000000
vn 0.000000 0.000000 1.000000
vn 0.000000 0.000000 1.000000
vn 0.000000 1.000000 0.000000
vn 0.000000 1.000000 0.000000
vn 0.000000 1.000000 0.000000
vn 0.000000 1.000000 0.000000
vn 1.000000 0.000000 0.000000
vn 1.000000 0.000000 0.000000
vn 1.000000 0.000000 0.000000
vn 1.000000 0.000000 0.000000
vn -1.000000 -0.000000 -0.000000
vn -1.000000 -0.000000 -0.000000
vn -1.000000 -0.000000 -0.000000
vn -1.000000 -0.000000 -0.000000
f 57/169/169 58/170/170 60/171/171
f 60/171/171 58/170/170 59/172/172
f 61/173/173 57/174/174 62/175/175
f 62/175/175 57/174/174 60/176/176
f 63/177/177 61/178/178 64/179/179
f 64/179/179 61/178/178 62/180/180
f 58/181/181 63/182/182 59/183/183
f 59/183/183 63/182/182 64/184/184
f 64/185/185 62/186/186 59/187/187
f 59/187/187 62/186/186 60/188/188
f 63/189/189 58/190/190 61/191/191
f 61/191/191 58/190/190 57/192/192
g Body10

v 2.500000 0.900000 2.100000
v -2.500000 0.900000 2.100000
v -2.500000 0.900000 4.500000
v 2.500000 0.900000 4.500000
v -2.500000 0.800000 2.100000
v 2.500000 0.800000 2.100000
v 2.500000 0.800000 4.500000
v -2.500000 0.800000 4.500000
vt 1.200000 2.500000 0.000000
vt -1.200000 2.500000 0.000000
vt 1.200000 -2.500000 0.000000
vt -1.200000 -2.500000 0.000000
vt -1.200000 -2.500000 0.000000
vt 1.200000 -2.500000 0.000000
vt -1.200000 2.500000 0.000000
vt 1.200000 2.500000 0.000000
vt -0.050000 -1.200000 0.000000
vt 0.050000 -1.200000 0.000000
vt -0.050000 1.200000 0.000000
vt 0.050000 1.200000 0.000000
vt 0.050000 2.500000 0.000000
vt -0.050000 2.500000 0.000000
vt 0.050000 -2.500000 0.000000
vt -0.050000 -2.500000 0.000000
vt 0.050000 1.200000 0.000000
vt -0.050000 1.200000 0.000000
vt 0.050000 -1.200000 0.000000
vt -0.050000 -1.200000 0.000000
vt -0.050000 -2.500000 0.000000
vt 0.050000 -2.500000 0.000000
vt -0.050000 2.500000 0.000000
vt 0.050000 2.500000 0.000000
vn 0.000000 1.000000 0.000000
vn 0.000000 1.000000 0.000000
vn 0.000000 1.000000 0.000000
vn 0.000000 1.000000 0.000000
vn -0.000000 -1.000000 -0.000000
vn -0.000000 -1.000000 -0.000000
vn -0.000000 -1.000000 -0.000000
vn -0.000000 -1.000000 -0.000000
vn 1.000000 -0.000000 -0.000000
vn 1.000000 -0.000000 -0.000000
vn 1.000000 -0.000000 -0.000000
vn 1.000000 -0.000000 -0.000000
vn -0.000000 -0.000000 1.000000
vn -0.000000 -0.000000 1.000000
vn -0.000000 -0.000000 1.000000
vn -0.000000 -0.000000 1.000000
vn -1.000000 -0.000000 -0.000000
vn -1.000000 -0.000000 -0.000000
vn -1.000000 -0.000000 -0.000000
vn -1.000000 -0.000000 -0.000000
vn -0.000000 -0.000000 -1.000000
vn -0.000000 -0.000000 -1.000000
vn -0.000000 -0.000000 -1.000000
vn -0.000000 -0.000000 -1.000000
f 66/193/193 67/194/194 65/195/195
f 65/195/195 67/194/194 68/196/196
f 70/197/197 71/198/198 69/199/199
f 69/199/199 71/198/198 72/200/200
f 68/201/201 71/202/202 65/203/203
f 65/203/203 71/202/202 70/204/204
f 67/205/205 72/206/206 68/207/207
f 68/207/207 72/206/206 71/208/208
f 66/209/209 69/210/210 67/211/211
f 67/211/211 69/210/210 72/212/212
f 65/213/213 70/214/214 66/215/215
f 66/215/215 70/214/214 69/216/216
g Body11

v -2.500000 0.200000 4.500000
v 2.500000 0.200000 4.500000
v 2.500000 0.900000 4.500000
v -2.500000 0.900000 4.500000
v 2.500000 0.200000 4.400000
v -2.500000 0.200000 4.400000
v -2.500000 0.900000 4.400000
v 2.500000 0.900000 4.400000
vt 0.350000 2.500000 0.000000
vt -0.350000 2.500000 0.000000
vt 0.350000 -2.500000 0.000000
vt -0.350000 -2.500000 0.000000
vt -0.350000 -2.500000 0.000000
vt 0.350000 -2.500000 0.000000
vt -0.350000 2.500000 0.000000
vt 0.350000 2.500000 0.000000
vt -0.050000 -0.350000 0.000000
vt 0.050000 -0.350000 0.000000
vt -0.050000 0.350000 0.000000
vt 0.050000 0.350000 0.000000
vt 0.050000 2.500000 0.000000
vt -0.050000 2.500000 0.000000
vt 0.050000 -2.500000 0.000000
vt -0.050000 -2.500000 0.000000
vt 0.050000 0.350000 0.000000
vt -0.050000 0.350000 0.000000
vt 0.050000 -0.350000 0.000000
vt -0.050000 -0.350000 0.000000
vt -0.050000 -2.500000 0.000000
vt 0.050000 -2.500000 0.000000
vt -0.050000 2.500000 0.000000
vt 0.050000 2.500000 0.000000
vn 0.000000 0.000000 1.000000
vn 0.000000 0.000000 1.000000
vn 0.000000 0.000000 1.000000
vn 0.000000 0.000000 1.000000
vn -0.000000 -0.000000 -1.000000
vn -0.000000 -0.000000 -1.000000
vn -0.000000 -0.000000 -1.000000
vn -0.000000 -0.000000 -1.000000
vn -1.000000 -0.000000 -0.000000
vn -1.000000 -0.000000 -0.000000
vn -1.000000 -0.000000 -0.000000
vn -1.000000 -0.000000 -0.000000
vn -0.000000 1.000000 -0.000000
vn -0.000000 1.000000 -0.000000
vn -0.000000 1.000000 -0.000000
vn -0.000000 1.000000 -0.000000
vn 1.000000 -0.000000 -0.000000
vn 1.000000 -0.000000 -0.000000
vn 1.000000 -0.000000 -0.000000
vn 1.000000 -0.000000 -0.000000
vn -0.000000 -1.000000 -0.000000
vn -0.000000 -1.000000 -0.000000
vn -0.000000 -1.000000 -0.000000
vn -0.000000 -1.000000 -0.000000
f 74/217/217 75/218/218 73/219/219
f 73/219/219 75/218/218 76/220/220
f 78/221/221 79/222/222 77/223/223
f 77/223/223 79/222/222 80/224/224
f 76/225/225 79/226/226 73/227/227
f 73/227/227 79/226/226 78/228/228
f 75/229/229 80/230/230 76/231/231
f 76/231/231 80/230/230 79/232/232
f 74/233/233 77/234/234 75/235/235
f 75/235/235 77/234/234 80/236/236
f 73/237/237 78/238/238 74/239/239
f 74/239/239 78/238/238 77/240/240
# 80 vertices
# 240 texture params
# 240 normals
# 120 facets

# 10 groups
